<?xml version="1.0" encoding="utf-8"?>
<!-- Generator: Fusion 360, Shaper Origin Export Add-In, Version 1.7.0  -->
<svg xmlns="http://www.w3.org/2000/svg" xmlns:xlink="http://www.w3.org/1999/xlink" xmlns:shaper="http://www.shapertools.com/namespaces/shaper" shaper:fusionaddin="version:1.7.0" width="46.5cm" height="18.8cm" version="1.1" x="0cm" y="0cm" viewBox="0 0 46.5 18.8" enable-background="new 0 0 46.5 18.8" xml:space="preserve"><path d="M20.75,-0 A0.45,0.45 0 0,0 19.85,-0 L-19.85,-0 A0.45,0.45 0 0,0 -20.75,-0 L-20.75,1.8 -22.25,1.8 -22.25,-0.6405076 A2,2 180 0,1 -20.418177,-2.6334242 A80,80 85.1763887 0,0 16.3342961,-15.197064 A5,5 237.078164 0,1 19.0517681,-16 L22.55,-16 22.55,-11.6 A0.175,0.175 180 0,0 22.9,-11.6 L22.9,-12.0085786 A0.1,0.1 180 0,1 22.9292893,-12.0792893 L24.0792893,-13.2292893 A0.1,0.1 225 0,1 24.25,-13.1585786 L24.25,-9.2 A0.5,0.5 0 0,1 23.75,-8.7 L23.05,-8.7 A0.5,0.5 270 0,0 22.55,-8.2 L22.55,0.4 A0.175,0.175 180 0,0 22.9,0.4 L22.9,-0.0085786 A0.1,0.1 180 0,1 22.9292893,-0.0792893 L24.0792893,-1.2292893 A0.1,0.1 225 0,1 24.25,-1.1585786 L24.25,2.3 A0.5,0.5 0 0,1 23.75,2.8 L19.85,2.8 A0.1,0.1 90 0,1 19.75,2.7 L19.75,2.2535184 A0.1,0.1 180 0,1 19.79453,2.1703133 L20.2240377,1.8839749 A0.5,0.5 236.3099325 0,1 20.5013878,1.8 L20.75,1.8 A0.175,0.175 90 1,0 20.75,1.45 L20.75,0z" transform="matrix(1,0,0,-1,22.25,2.8)" fill="rgb(0,0,0)" shaper:cutDepth="1.8cm" stroke-linecap="round" stroke-linejoin="round" /><path d="M18.55,-10.1834173 A1,1 0 0,0 17.0246571,-11.0343079 A80,80 58.3086677 0,1 7.2946764,-5.9148834 A1,1 246.1891736 0,0 7.6983946,-4 L17.55,-4 A1,1 90 0,0 18.55,-5 L18.55,-10.1834173z" transform="matrix(1,0,0,-1,22.25,2.8)" fill="rgb(255,255,255)" stroke="rgb(0,0,0)" stroke-width="0.0010cm" stroke-linecap="round" stroke-linejoin="round" shaper:cutDepth="1.8cm" /></svg>