<?xml version="1.0" encoding="utf-8"?>
<!-- Generator: Fusion 360, Shaper Origin Export Add-In, Version 1.7.0  -->
<svg xmlns="http://www.w3.org/2000/svg" xmlns:xlink="http://www.w3.org/1999/xlink" xmlns:shaper="http://www.shapertools.com/namespaces/shaper" shaper:fusionaddin="version:1.7.0" width="96cm" height="45cm" version="1.1" x="0cm" y="0cm" viewBox="0 0 96 45" enable-background="new 0 0 96 45" xml:space="preserve"><path d="M-8.9071068,-19.2928932 L-6.5786797,-21.6213203 A3,3 225 0,1 -4.4573593,-22.5 L4.4573593,-22.5 A3,3 270 0,1 6.5786797,-21.6213203 L8.9071068,-19.2928932 A1,1 135 0,0 9.6142136,-19 L15.55,-19 A0.7,0.7 180 0,0 16.25,-18.3 L17.75,-18.3 A0.7,0.7 90 0,0 18.45,-19 L43,-19 A5,5 270 0,1 48,-14 L48,17.5 A5,5 0 0,1 43,22.5 L-43,22.5 A5,5 90 0,1 -48,17.5 L-48,-14 A5,5 180 0,1 -43,-19 L-18.45,-19 A0.7,0.7 180 0,0 -17.75,-18.3 L-16.25,-18.3 A0.7,0.7 90 0,0 -15.55,-19 L-9.6142136,-19 A1,1 90 0,0 -8.9071068,-19.2928932z" transform="matrix(1,0,0,-1,48,22.5)" fill="rgb(0,0,0)" shaper:cutDepth="1.8cm" stroke-linecap="round" stroke-linejoin="round" /><path d="M17.4,17.8 a1.1,1.1 0 1,0 2.2,0 a1.1,1.1 0 1,0 -2.2,0z" transform="matrix(1,0,0,-1,48,22.5)" fill="rgb(172,172,172)" fill-rule="nonzero" shaper:cutDepth="1.3cm" stroke-linecap="round" stroke-linejoin="round" /><path d="M-10.7,17.8 a1.1,1.1 0 1,0 2.2,0 a1.1,1.1 0 1,0 -2.2,0z" transform="matrix(1,0,0,-1,48,22.5)" fill="rgb(172,172,172)" fill-rule="nonzero" shaper:cutDepth="1.3cm" stroke-linecap="round" stroke-linejoin="round" /><path d="M-25.5,17.8 a1.1,1.1 0 1,0 2.2,0 a1.1,1.1 0 1,0 -2.2,0z" transform="matrix(1,0,0,-1,48,22.5)" fill="rgb(172,172,172)" fill-rule="nonzero" shaper:cutDepth="1.3cm" stroke-linecap="round" stroke-linejoin="round" /><path d="M22.8,-1.2 a1.1,1.1 0 1,0 2.2,0 a1.1,1.1 0 1,0 -2.2,0z" transform="matrix(1,0,0,-1,48,22.5)" fill="rgb(172,172,172)" fill-rule="nonzero" shaper:cutDepth="1.3cm" stroke-linecap="round" stroke-linejoin="round" /><path d="M17.4,-1.2 a1.1,1.1 0 1,0 2.2,0 a1.1,1.1 0 1,0 -2.2,0z" transform="matrix(1,0,0,-1,48,22.5)" fill="rgb(172,172,172)" fill-rule="nonzero" shaper:cutDepth="1.3cm" stroke-linecap="round" stroke-linejoin="round" /><path d="M12,1.2 a1.1,1.1 0 1,0 2.2,0 a1.1,1.1 0 1,0 -2.2,0z" transform="matrix(1,0,0,-1,48,22.5)" fill="rgb(172,172,172)" fill-rule="nonzero" shaper:cutDepth="1.3cm" stroke-linecap="round" stroke-linejoin="round" /><path d="M-18.1,-1.2 a1.1,1.1 0 1,0 2.2,0 a1.1,1.1 0 1,0 -2.2,0z" transform="matrix(1,0,0,-1,48,22.5)" fill="rgb(172,172,172)" fill-rule="nonzero" shaper:cutDepth="1.3cm" stroke-linecap="round" stroke-linejoin="round" /><path d="M-10.7,1.2 a1.1,1.1 0 1,0 2.2,0 a1.1,1.1 0 1,0 -2.2,0z" transform="matrix(1,0,0,-1,48,22.5)" fill="rgb(172,172,172)" fill-rule="nonzero" shaper:cutDepth="1.3cm" stroke-linecap="round" stroke-linejoin="round" /><path d="M-25.5,1.2 a1.1,1.1 0 1,0 2.2,0 a1.1,1.1 0 1,0 -2.2,0z" transform="matrix(1,0,0,-1,48,22.5)" fill="rgb(172,172,172)" fill-rule="nonzero" shaper:cutDepth="1.3cm" stroke-linecap="round" stroke-linejoin="round" /><path d="M-18.1,1.2 a1.1,1.1 0 1,0 2.2,0 a1.1,1.1 0 1,0 -2.2,0z" transform="matrix(1,0,0,-1,48,22.5)" fill="rgb(172,172,172)" fill-rule="nonzero" shaper:cutDepth="1.3cm" stroke-linecap="round" stroke-linejoin="round" /><path d="M-10.7,-1.2 a1.1,1.1 0 1,0 2.2,0 a1.1,1.1 0 1,0 -2.2,0z" transform="matrix(1,0,0,-1,48,22.5)" fill="rgb(172,172,172)" fill-rule="nonzero" shaper:cutDepth="1.3cm" stroke-linecap="round" stroke-linejoin="round" /><path d="M-25.5,-1.2 a1.1,1.1 0 1,0 2.2,0 a1.1,1.1 0 1,0 -2.2,0z" transform="matrix(1,0,0,-1,48,22.5)" fill="rgb(172,172,172)" fill-rule="nonzero" shaper:cutDepth="1.3cm" stroke-linecap="round" stroke-linejoin="round" /><path d="M17.4,1.2 a1.1,1.1 0 1,0 2.2,0 a1.1,1.1 0 1,0 -2.2,0z" transform="matrix(1,0,0,-1,48,22.5)" fill="rgb(172,172,172)" fill-rule="nonzero" shaper:cutDepth="1.3cm" stroke-linecap="round" stroke-linejoin="round" /><path d="M12,-1.2 a1.1,1.1 0 1,0 2.2,0 a1.1,1.1 0 1,0 -2.2,0z" transform="matrix(1,0,0,-1,48,22.5)" fill="rgb(172,172,172)" fill-rule="nonzero" shaper:cutDepth="1.3cm" stroke-linecap="round" stroke-linejoin="round" /><path d="M22.8,1.2 a1.1,1.1 0 1,0 2.2,0 a1.1,1.1 0 1,0 -2.2,0z" transform="matrix(1,0,0,-1,48,22.5)" fill="rgb(172,172,172)" fill-rule="nonzero" shaper:cutDepth="1.3cm" stroke-linecap="round" stroke-linejoin="round" /><path d="M-18.1,17.8 a1.1,1.1 0 1,0 2.2,0 a1.1,1.1 0 1,0 -2.2,0z" transform="matrix(1,0,0,-1,48,22.5)" fill="rgb(172,172,172)" fill-rule="nonzero" shaper:cutDepth="1.3cm" stroke-linecap="round" stroke-linejoin="round" /><path d="M12,17.8 a1.1,1.1 0 1,0 2.2,0 a1.1,1.1 0 1,0 -2.2,0z" transform="matrix(1,0,0,-1,48,22.5)" fill="rgb(172,172,172)" fill-rule="nonzero" shaper:cutDepth="1.3cm" stroke-linecap="round" stroke-linejoin="round" /><path d="M22.8,17.8 a1.1,1.1 0 1,0 2.2,0 a1.1,1.1 0 1,0 -2.2,0z" transform="matrix(1,0,0,-1,48,22.5)" fill="rgb(172,172,172)" fill-rule="nonzero" shaper:cutDepth="1.3cm" stroke-linecap="round" stroke-linejoin="round" /><path d="M-16.25,-18.3 L-17.75,-18.3 A0.7,0.7 90 0,1 -17.8608641,-18.3088349 A1,1 210.5862563 1,0 -16.1391359,-18.3088349 A0.7,0.7 80.8872788 0,1 -16.25,-18.3z" transform="matrix(1,0,0,-1,48,22.5)" fill="rgb(172,172,172)" fill-rule="nonzero" shaper:cutDepth="1.3cm" stroke-linecap="round" stroke-linejoin="round" /><path d="M22.9,-17.8 a1,1 0 1,0 2,0 a1,1 0 1,0 -2,0z" transform="matrix(1,0,0,-1,48,22.5)" fill="rgb(172,172,172)" fill-rule="nonzero" shaper:cutDepth="1.3cm" stroke-linecap="round" stroke-linejoin="round" /><path d="M12.1,-17.8 a1,1 0 1,0 2,0 a1,1 0 1,0 -2,0z" transform="matrix(1,0,0,-1,48,22.5)" fill="rgb(172,172,172)" fill-rule="nonzero" shaper:cutDepth="1.3cm" stroke-linecap="round" stroke-linejoin="round" /><path d="M17.75,-18.3 L17.6339746,-18.3 A1,1 210 1,0 18.4198529,-18.796783 A0.7,0.7 16.8765124 0,1 17.75,-18.3z" transform="matrix(1,0,0,-1,48,22.5)" fill="rgb(172,172,172)" fill-rule="nonzero" shaper:cutDepth="1.3cm" stroke-linecap="round" stroke-linejoin="round" /><path d="M-10.6,-17.8 a1,1 0 1,0 2,0 a1,1 0 1,0 -2,0z" transform="matrix(1,0,0,-1,48,22.5)" fill="rgb(172,172,172)" fill-rule="nonzero" shaper:cutDepth="1.3cm" stroke-linecap="round" stroke-linejoin="round" /><path d="M-25.4,-17.8 a1,1 0 1,0 2,0 a1,1 0 1,0 -2,0z" transform="matrix(1,0,0,-1,48,22.5)" fill="rgb(172,172,172)" fill-rule="nonzero" shaper:cutDepth="1.3cm" stroke-linecap="round" stroke-linejoin="round" /><path d="M-4.5,17.5 L4.5,17.5 A1.5,1.5 270 0,1 4.5,20.5 L-4.5,20.5 A1.5,1.5 90 0,1 -4.5,17.5z" transform="matrix(1,0,0,-1,48,22.5)" fill="rgb(255,255,255)" stroke="rgb(0,0,0)" stroke-width="0.0010cm" stroke-linecap="round" stroke-linejoin="round" shaper:cutDepth="1.8cm" /><path d="M4.5,-17.5 L-4.5,-17.5 A1.5,1.5 90 0,1 -4.5,-20.5 L4.5,-20.5 A1.5,1.5 270 0,1 4.5,-17.5z" transform="matrix(1,0,0,-1,48,22.5)" fill="rgb(255,255,255)" stroke="rgb(0,0,0)" stroke-width="0.0010cm" stroke-linecap="round" stroke-linejoin="round" shaper:cutDepth="1.8cm" /><path d="M18.05,17.8 a0.45,0.45 0 1,1 0.9,0 a0.45,0.45 0 1,1 -0.9,0z" transform="matrix(1,0,0,-1,48,22.5)" fill="rgb(255,255,255)" stroke="rgb(0,0,0)" stroke-width="0.0010cm" stroke-linecap="round" stroke-linejoin="round" shaper:cutDepth="1.8cm" /><path d="M-10.05,17.8 a0.45,0.45 0 1,1 0.9,0 a0.45,0.45 0 1,1 -0.9,0z" transform="matrix(1,0,0,-1,48,22.5)" fill="rgb(255,255,255)" stroke="rgb(0,0,0)" stroke-width="0.0010cm" stroke-linecap="round" stroke-linejoin="round" shaper:cutDepth="1.8cm" /><path d="M-24.85,17.8 a0.45,0.45 0 1,1 0.9,0 a0.45,0.45 0 1,1 -0.9,0z" transform="matrix(1,0,0,-1,48,22.5)" fill="rgb(255,255,255)" stroke="rgb(0,0,0)" stroke-width="0.0010cm" stroke-linecap="round" stroke-linejoin="round" shaper:cutDepth="1.8cm" /><path d="M23.45,-1.2 a0.45,0.45 0 1,1 0.9,0 a0.45,0.45 0 1,1 -0.9,0z" transform="matrix(1,0,0,-1,48,22.5)" fill="rgb(255,255,255)" stroke="rgb(0,0,0)" stroke-width="0.0010cm" stroke-linecap="round" stroke-linejoin="round" shaper:cutDepth="1.8cm" /><path d="M18.05,-1.2 a0.45,0.45 0 1,1 0.9,0 a0.45,0.45 0 1,1 -0.9,0z" transform="matrix(1,0,0,-1,48,22.5)" fill="rgb(255,255,255)" stroke="rgb(0,0,0)" stroke-width="0.0010cm" stroke-linecap="round" stroke-linejoin="round" shaper:cutDepth="1.8cm" /><path d="M12.65,1.2 a0.45,0.45 0 1,1 0.9,0 a0.45,0.45 0 1,1 -0.9,0z" transform="matrix(1,0,0,-1,48,22.5)" fill="rgb(255,255,255)" stroke="rgb(0,0,0)" stroke-width="0.0010cm" stroke-linecap="round" stroke-linejoin="round" shaper:cutDepth="1.8cm" /><path d="M-17.45,-1.2 a0.45,0.45 0 1,1 0.9,0 a0.45,0.45 0 1,1 -0.9,0z" transform="matrix(1,0,0,-1,48,22.5)" fill="rgb(255,255,255)" stroke="rgb(0,0,0)" stroke-width="0.0010cm" stroke-linecap="round" stroke-linejoin="round" shaper:cutDepth="1.8cm" /><path d="M-10.05,1.2 a0.45,0.45 0 1,1 0.9,0 a0.45,0.45 0 1,1 -0.9,0z" transform="matrix(1,0,0,-1,48,22.5)" fill="rgb(255,255,255)" stroke="rgb(0,0,0)" stroke-width="0.0010cm" stroke-linecap="round" stroke-linejoin="round" shaper:cutDepth="1.8cm" /><path d="M-24.85,1.2 a0.45,0.45 0 1,1 0.9,0 a0.45,0.45 0 1,1 -0.9,0z" transform="matrix(1,0,0,-1,48,22.5)" fill="rgb(255,255,255)" stroke="rgb(0,0,0)" stroke-width="0.0010cm" stroke-linecap="round" stroke-linejoin="round" shaper:cutDepth="1.8cm" /><path d="M-17.45,1.2 a0.45,0.45 0 1,1 0.9,0 a0.45,0.45 0 1,1 -0.9,0z" transform="matrix(1,0,0,-1,48,22.5)" fill="rgb(255,255,255)" stroke="rgb(0,0,0)" stroke-width="0.0010cm" stroke-linecap="round" stroke-linejoin="round" shaper:cutDepth="1.8cm" /><path d="M-10.05,-1.2 a0.45,0.45 0 1,1 0.9,0 a0.45,0.45 0 1,1 -0.9,0z" transform="matrix(1,0,0,-1,48,22.5)" fill="rgb(255,255,255)" stroke="rgb(0,0,0)" stroke-width="0.0010cm" stroke-linecap="round" stroke-linejoin="round" shaper:cutDepth="1.8cm" /><path d="M-24.85,-1.2 a0.45,0.45 0 1,1 0.9,0 a0.45,0.45 0 1,1 -0.9,0z" transform="matrix(1,0,0,-1,48,22.5)" fill="rgb(255,255,255)" stroke="rgb(0,0,0)" stroke-width="0.0010cm" stroke-linecap="round" stroke-linejoin="round" shaper:cutDepth="1.8cm" /><path d="M18.05,1.2 a0.45,0.45 0 1,1 0.9,0 a0.45,0.45 0 1,1 -0.9,0z" transform="matrix(1,0,0,-1,48,22.5)" fill="rgb(255,255,255)" stroke="rgb(0,0,0)" stroke-width="0.0010cm" stroke-linecap="round" stroke-linejoin="round" shaper:cutDepth="1.8cm" /><path d="M12.65,-1.2 a0.45,0.45 0 1,1 0.9,0 a0.45,0.45 0 1,1 -0.9,0z" transform="matrix(1,0,0,-1,48,22.5)" fill="rgb(255,255,255)" stroke="rgb(0,0,0)" stroke-width="0.0010cm" stroke-linecap="round" stroke-linejoin="round" shaper:cutDepth="1.8cm" /><path d="M23.45,1.2 a0.45,0.45 0 1,1 0.9,0 a0.45,0.45 0 1,1 -0.9,0z" transform="matrix(1,0,0,-1,48,22.5)" fill="rgb(255,255,255)" stroke="rgb(0,0,0)" stroke-width="0.0010cm" stroke-linecap="round" stroke-linejoin="round" shaper:cutDepth="1.8cm" /><path d="M-17.45,17.8 a0.45,0.45 0 1,1 0.9,0 a0.45,0.45 0 1,1 -0.9,0z" transform="matrix(1,0,0,-1,48,22.5)" fill="rgb(255,255,255)" stroke="rgb(0,0,0)" stroke-width="0.0010cm" stroke-linecap="round" stroke-linejoin="round" shaper:cutDepth="1.8cm" /><path d="M12.65,17.8 a0.45,0.45 0 1,1 0.9,0 a0.45,0.45 0 1,1 -0.9,0z" transform="matrix(1,0,0,-1,48,22.5)" fill="rgb(255,255,255)" stroke="rgb(0,0,0)" stroke-width="0.0010cm" stroke-linecap="round" stroke-linejoin="round" shaper:cutDepth="1.8cm" /><path d="M23.45,17.8 a0.45,0.45 0 1,1 0.9,0 a0.45,0.45 0 1,1 -0.9,0z" transform="matrix(1,0,0,-1,48,22.5)" fill="rgb(255,255,255)" stroke="rgb(0,0,0)" stroke-width="0.0010cm" stroke-linecap="round" stroke-linejoin="round" shaper:cutDepth="1.8cm" /><path d="M-17.4,-17.8 a0.4,0.4 0 1,1 0.8,0 a0.4,0.4 0 1,1 -0.8,0z" transform="matrix(1,0,0,-1,48,22.5)" fill="rgb(255,255,255)" stroke="rgb(0,0,0)" stroke-width="0.0010cm" stroke-linecap="round" stroke-linejoin="round" shaper:cutDepth="1.8cm" /><path d="M23.5,-17.8 a0.4,0.4 0 1,1 0.8,0 a0.4,0.4 0 1,1 -0.8,0z" transform="matrix(1,0,0,-1,48,22.5)" fill="rgb(255,255,255)" stroke="rgb(0,0,0)" stroke-width="0.0010cm" stroke-linecap="round" stroke-linejoin="round" shaper:cutDepth="1.8cm" /><path d="M12.7,-17.8 a0.4,0.4 0 1,1 0.8,0 a0.4,0.4 0 1,1 -0.8,0z" transform="matrix(1,0,0,-1,48,22.5)" fill="rgb(255,255,255)" stroke="rgb(0,0,0)" stroke-width="0.0010cm" stroke-linecap="round" stroke-linejoin="round" shaper:cutDepth="1.8cm" /><path d="M18.1,-17.8 a0.4,0.4 0 1,1 0.8,0 a0.4,0.4 0 1,1 -0.8,0z" transform="matrix(1,0,0,-1,48,22.5)" fill="rgb(255,255,255)" stroke="rgb(0,0,0)" stroke-width="0.0010cm" stroke-linecap="round" stroke-linejoin="round" shaper:cutDepth="1.8cm" /><path d="M-10,-17.8 a0.4,0.4 0 1,1 0.8,0 a0.4,0.4 0 1,1 -0.8,0z" transform="matrix(1,0,0,-1,48,22.5)" fill="rgb(255,255,255)" stroke="rgb(0,0,0)" stroke-width="0.0010cm" stroke-linecap="round" stroke-linejoin="round" shaper:cutDepth="1.8cm" /><path d="M-24.8,-17.8 a0.4,0.4 0 1,1 0.8,0 a0.4,0.4 0 1,1 -0.8,0z" transform="matrix(1,0,0,-1,48,22.5)" fill="rgb(255,255,255)" stroke="rgb(0,0,0)" stroke-width="0.0010cm" stroke-linecap="round" stroke-linejoin="round" shaper:cutDepth="1.8cm" /><path d="M-12.6,20 a0.4,0.4 0 1,1 0.8,0 a0.4,0.4 0 1,1 -0.8,0z" transform="matrix(1,0,0,-1,48,22.5)" fill="rgb(255,255,255)" stroke="rgb(0,0,0)" stroke-width="0.0010cm" stroke-linecap="round" stroke-linejoin="round" shaper:cutDepth="1.8cm" /><path d="M11.8,20 a0.4,0.4 0 1,1 0.8,0 a0.4,0.4 0 1,1 -0.8,0z" transform="matrix(1,0,0,-1,48,22.5)" fill="rgb(255,255,255)" stroke="rgb(0,0,0)" stroke-width="0.0010cm" stroke-linecap="round" stroke-linejoin="round" shaper:cutDepth="1.8cm" /><path d="M-21.6,20 a0.4,0.4 0 1,1 0.8,0 a0.4,0.4 0 1,1 -0.8,0z" transform="matrix(1,0,0,-1,48,22.5)" fill="rgb(255,255,255)" stroke="rgb(0,0,0)" stroke-width="0.0010cm" stroke-linecap="round" stroke-linejoin="round" shaper:cutDepth="1.8cm" /><path d="M20.8,20 a0.4,0.4 0 1,1 0.8,0 a0.4,0.4 0 1,1 -0.8,0z" transform="matrix(1,0,0,-1,48,22.5)" fill="rgb(255,255,255)" stroke="rgb(0,0,0)" stroke-width="0.0010cm" stroke-linecap="round" stroke-linejoin="round" shaper:cutDepth="1.8cm" /><path d="M14.5,-3.75 L14.5,-11.75 A1,1 180 0,1 15.5,-12.75 L21.5,-12.75 A1,1 270 0,1 22.5,-11.75 L22.5,-3.75 A1,1 0 0,1 21.5,-2.75 L15.5,-2.75 A1,1 90 0,1 14.5,-3.75z" transform="matrix(1,0,0,-1,48,22.5)" fill="rgb(255,255,255)" stroke="rgb(0,0,0)" stroke-width="0.0010cm" stroke-linecap="round" stroke-linejoin="round" shaper:cutDepth="1.8cm" /><path d="M-22.6453,-4.5 L-22.6453,-14.5 A1,1 180 0,1 -21.6453,-15.5 L-11.6453,-15.5 A1,1 270 0,1 -10.6453,-14.5 L-10.6453,-4.5 A1,1 0 0,1 -11.6453,-3.5 L-21.6453,-3.5 A1,1 90 0,1 -22.6453,-4.5z" transform="matrix(1,0,0,-1,48,22.5)" fill="rgb(255,255,255)" stroke="rgb(0,0,0)" stroke-width="0.0010cm" stroke-linecap="round" stroke-linejoin="round" shaper:cutDepth="1.8cm" /><path d="M14.5,11.75 L14.5,3.75 A1,1 180 0,1 15.5,2.75 L21.5,2.75 A1,1 270 0,1 22.5,3.75 L22.5,11.75 A1,1 0 0,1 21.5,12.75 L15.5,12.75 A1,1 90 0,1 14.5,11.75z" transform="matrix(1,0,0,-1,48,22.5)" fill="rgb(255,255,255)" stroke="rgb(0,0,0)" stroke-width="0.0010cm" stroke-linecap="round" stroke-linejoin="round" shaper:cutDepth="1.8cm" /><path d="M-22.6453,14.5 L-22.6453,4.5 A1,1 180 0,1 -21.6453,3.5 L-11.6453,3.5 A1,1 270 0,1 -10.6453,4.5 L-10.6453,14.5 A1,1 0 0,1 -11.6453,15.5 L-21.6453,15.5 A1,1 90 0,1 -22.6453,14.5z" transform="matrix(1,0,0,-1,48,22.5)" fill="rgb(255,255,255)" stroke="rgb(0,0,0)" stroke-width="0.0010cm" stroke-linecap="round" stroke-linejoin="round" shaper:cutDepth="1.8cm" /></svg>